<mxfile host="app.diagrams.net" modified="2021-08-01T08:51:47.593Z" agent="5.0 (Macintosh; Intel Mac OS X 10_15_7) AppleWebKit/537.36 (KHTML, like Gecko) Chrome/92.0.4515.107 Safari/537.36" etag="aGZVezGxt5ftrZdbO51J" version="14.9.3" type="github">
  <diagram id="qSyJ6PDo0A_8prt7c-4I" name="Page-1">
    <mxGraphModel dx="1426" dy="769" grid="1" gridSize="10" guides="1" tooltips="1" connect="1" arrows="1" fold="1" page="1" pageScale="1" pageWidth="827" pageHeight="1569" math="0" shadow="0">
      <root>
        <mxCell id="0" />
        <mxCell id="1" parent="0" />
        <mxCell id="bjPOTUNxdTXvCPRhBHzb-26" style="edgeStyle=orthogonalEdgeStyle;rounded=0;orthogonalLoop=1;jettySize=auto;html=1;exitX=0.5;exitY=1;exitDx=0;exitDy=0;entryX=0.5;entryY=0;entryDx=0;entryDy=0;" edge="1" parent="1" source="bjPOTUNxdTXvCPRhBHzb-1" target="bjPOTUNxdTXvCPRhBHzb-11">
          <mxGeometry relative="1" as="geometry" />
        </mxCell>
        <mxCell id="bjPOTUNxdTXvCPRhBHzb-1" value="开始" style="ellipse;whiteSpace=wrap;html=1;" vertex="1" parent="1">
          <mxGeometry x="290" y="50" width="120" height="80" as="geometry" />
        </mxCell>
        <mxCell id="bjPOTUNxdTXvCPRhBHzb-6" value="结束" style="ellipse;whiteSpace=wrap;html=1;" vertex="1" parent="1">
          <mxGeometry x="290" y="1220" width="120" height="80" as="geometry" />
        </mxCell>
        <mxCell id="bjPOTUNxdTXvCPRhBHzb-28" style="edgeStyle=orthogonalEdgeStyle;rounded=0;orthogonalLoop=1;jettySize=auto;html=1;entryX=0.5;entryY=0;entryDx=0;entryDy=0;" edge="1" parent="1" source="bjPOTUNxdTXvCPRhBHzb-11" target="bjPOTUNxdTXvCPRhBHzb-12">
          <mxGeometry relative="1" as="geometry" />
        </mxCell>
        <mxCell id="bjPOTUNxdTXvCPRhBHzb-11" value="获取tag 、bucket" style="whiteSpace=wrap;html=1;aspect=fixed;" vertex="1" parent="1">
          <mxGeometry x="310" y="160" width="80" height="80" as="geometry" />
        </mxCell>
        <mxCell id="bjPOTUNxdTXvCPRhBHzb-29" style="edgeStyle=orthogonalEdgeStyle;rounded=0;orthogonalLoop=1;jettySize=auto;html=1;entryX=0.5;entryY=0;entryDx=0;entryDy=0;" edge="1" parent="1" source="bjPOTUNxdTXvCPRhBHzb-12" target="bjPOTUNxdTXvCPRhBHzb-13">
          <mxGeometry relative="1" as="geometry" />
        </mxCell>
        <mxCell id="bjPOTUNxdTXvCPRhBHzb-12" value="根据region&lt;br&gt;获取最近的bucket&amp;nbsp;" style="whiteSpace=wrap;html=1;aspect=fixed;" vertex="1" parent="1">
          <mxGeometry x="310" y="270" width="80" height="80" as="geometry" />
        </mxCell>
        <mxCell id="bjPOTUNxdTXvCPRhBHzb-30" value="" style="edgeStyle=orthogonalEdgeStyle;rounded=0;orthogonalLoop=1;jettySize=auto;html=1;" edge="1" parent="1" source="bjPOTUNxdTXvCPRhBHzb-13" target="bjPOTUNxdTXvCPRhBHzb-15">
          <mxGeometry relative="1" as="geometry" />
        </mxCell>
        <mxCell id="bjPOTUNxdTXvCPRhBHzb-13" value="获取bucketName&amp;nbsp;&lt;br&gt;appID" style="whiteSpace=wrap;html=1;aspect=fixed;" vertex="1" parent="1">
          <mxGeometry x="310" y="390" width="80" height="80" as="geometry" />
        </mxCell>
        <mxCell id="bjPOTUNxdTXvCPRhBHzb-31" style="edgeStyle=orthogonalEdgeStyle;rounded=0;orthogonalLoop=1;jettySize=auto;html=1;exitX=0.5;exitY=1;exitDx=0;exitDy=0;entryX=0.5;entryY=0;entryDx=0;entryDy=0;" edge="1" parent="1" source="bjPOTUNxdTXvCPRhBHzb-15" target="bjPOTUNxdTXvCPRhBHzb-17">
          <mxGeometry relative="1" as="geometry" />
        </mxCell>
        <mxCell id="bjPOTUNxdTXvCPRhBHzb-39" style="edgeStyle=orthogonalEdgeStyle;rounded=0;orthogonalLoop=1;jettySize=auto;html=1;entryX=0;entryY=0.5;entryDx=0;entryDy=0;" edge="1" parent="1" source="bjPOTUNxdTXvCPRhBHzb-15" target="bjPOTUNxdTXvCPRhBHzb-16">
          <mxGeometry relative="1" as="geometry" />
        </mxCell>
        <mxCell id="bjPOTUNxdTXvCPRhBHzb-15" value="RefererHandler&lt;br&gt;处理" style="whiteSpace=wrap;html=1;aspect=fixed;" vertex="1" parent="1">
          <mxGeometry x="310" y="500" width="80" height="80" as="geometry" />
        </mxCell>
        <mxCell id="bjPOTUNxdTXvCPRhBHzb-16" value="主 要设置http head&lt;br&gt;referer" style="shape=document;whiteSpace=wrap;html=1;boundedLbl=1;" vertex="1" parent="1">
          <mxGeometry x="470" y="500" width="120" height="80" as="geometry" />
        </mxCell>
        <mxCell id="bjPOTUNxdTXvCPRhBHzb-32" style="edgeStyle=orthogonalEdgeStyle;rounded=0;orthogonalLoop=1;jettySize=auto;html=1;exitX=0.5;exitY=1;exitDx=0;exitDy=0;entryX=0.5;entryY=0;entryDx=0;entryDy=0;" edge="1" parent="1" source="bjPOTUNxdTXvCPRhBHzb-17" target="bjPOTUNxdTXvCPRhBHzb-19">
          <mxGeometry relative="1" as="geometry" />
        </mxCell>
        <mxCell id="bjPOTUNxdTXvCPRhBHzb-41" style="edgeStyle=orthogonalEdgeStyle;rounded=0;orthogonalLoop=1;jettySize=auto;html=1;entryX=0;entryY=0.5;entryDx=0;entryDy=0;" edge="1" parent="1" source="bjPOTUNxdTXvCPRhBHzb-17" target="bjPOTUNxdTXvCPRhBHzb-18">
          <mxGeometry relative="1" as="geometry" />
        </mxCell>
        <mxCell id="bjPOTUNxdTXvCPRhBHzb-17" value="Bandwidth&lt;br&gt;Handler&lt;br&gt;处理" style="whiteSpace=wrap;html=1;aspect=fixed;" vertex="1" parent="1">
          <mxGeometry x="302.5" y="620" width="95" height="95" as="geometry" />
        </mxCell>
        <mxCell id="bjPOTUNxdTXvCPRhBHzb-18" value="这个主要是借助&lt;br&gt;time包下的rate.Limiter&lt;br&gt;实现带宽限制" style="shape=document;whiteSpace=wrap;html=1;boundedLbl=1;" vertex="1" parent="1">
          <mxGeometry x="480" y="627.5" width="120" height="80" as="geometry" />
        </mxCell>
        <mxCell id="bjPOTUNxdTXvCPRhBHzb-33" style="edgeStyle=orthogonalEdgeStyle;rounded=0;orthogonalLoop=1;jettySize=auto;html=1;exitX=0.5;exitY=1;exitDx=0;exitDy=0;entryX=0.5;entryY=0;entryDx=0;entryDy=0;" edge="1" parent="1" source="bjPOTUNxdTXvCPRhBHzb-19" target="bjPOTUNxdTXvCPRhBHzb-20">
          <mxGeometry relative="1" as="geometry" />
        </mxCell>
        <mxCell id="bjPOTUNxdTXvCPRhBHzb-19" value="CORS&amp;nbsp;&lt;br&gt;跨域资源贡献处理" style="whiteSpace=wrap;html=1;aspect=fixed;" vertex="1" parent="1">
          <mxGeometry x="310" y="745" width="80" height="80" as="geometry" />
        </mxCell>
        <mxCell id="bjPOTUNxdTXvCPRhBHzb-34" style="edgeStyle=orthogonalEdgeStyle;rounded=0;orthogonalLoop=1;jettySize=auto;html=1;exitX=0.5;exitY=1;exitDx=0;exitDy=0;entryX=0.5;entryY=0;entryDx=0;entryDy=0;" edge="1" parent="1" source="bjPOTUNxdTXvCPRhBHzb-20" target="bjPOTUNxdTXvCPRhBHzb-22">
          <mxGeometry relative="1" as="geometry" />
        </mxCell>
        <mxCell id="bjPOTUNxdTXvCPRhBHzb-42" style="edgeStyle=orthogonalEdgeStyle;rounded=0;orthogonalLoop=1;jettySize=auto;html=1;exitX=1;exitY=0.5;exitDx=0;exitDy=0;entryX=0;entryY=0.5;entryDx=0;entryDy=0;" edge="1" parent="1" source="bjPOTUNxdTXvCPRhBHzb-20" target="bjPOTUNxdTXvCPRhBHzb-21">
          <mxGeometry relative="1" as="geometry" />
        </mxCell>
        <mxCell id="bjPOTUNxdTXvCPRhBHzb-20" value="tagName path&lt;br&gt;获取对象的存储路径" style="whiteSpace=wrap;html=1;aspect=fixed;" vertex="1" parent="1">
          <mxGeometry x="310" y="860" width="80" height="80" as="geometry" />
        </mxCell>
        <mxCell id="bjPOTUNxdTXvCPRhBHzb-21" value="这里 有IgnorePathPrefix&lt;br&gt;特殊处理" style="shape=document;whiteSpace=wrap;html=1;boundedLbl=1;" vertex="1" parent="1">
          <mxGeometry x="470" y="860" width="120" height="80" as="geometry" />
        </mxCell>
        <mxCell id="bjPOTUNxdTXvCPRhBHzb-35" style="edgeStyle=orthogonalEdgeStyle;rounded=0;orthogonalLoop=1;jettySize=auto;html=1;entryX=0.5;entryY=0;entryDx=0;entryDy=0;" edge="1" parent="1" source="bjPOTUNxdTXvCPRhBHzb-22" target="bjPOTUNxdTXvCPRhBHzb-23">
          <mxGeometry relative="1" as="geometry" />
        </mxCell>
        <mxCell id="bjPOTUNxdTXvCPRhBHzb-22" value="根据桶的类型获取存储对象的实例" style="whiteSpace=wrap;html=1;aspect=fixed;" vertex="1" parent="1">
          <mxGeometry x="310" y="980" width="80" height="80" as="geometry" />
        </mxCell>
        <mxCell id="bjPOTUNxdTXvCPRhBHzb-38" style="edgeStyle=orthogonalEdgeStyle;rounded=0;orthogonalLoop=1;jettySize=auto;html=1;entryX=0.5;entryY=0;entryDx=0;entryDy=0;" edge="1" parent="1" source="bjPOTUNxdTXvCPRhBHzb-23" target="bjPOTUNxdTXvCPRhBHzb-6">
          <mxGeometry relative="1" as="geometry" />
        </mxCell>
        <mxCell id="bjPOTUNxdTXvCPRhBHzb-23" value="调用 对应的接口获取数据" style="whiteSpace=wrap;html=1;aspect=fixed;" vertex="1" parent="1">
          <mxGeometry x="310" y="1100" width="80" height="80" as="geometry" />
        </mxCell>
      </root>
    </mxGraphModel>
  </diagram>
</mxfile>
